# xmcd
#
# Track frame offsets:
#	150
#	15595
#	30162
#	47940
#	69207
#	84562
#	100975
#	115895
#	133805
#	151347
#	172470
#	186712
#	198652
#	216147
#	235907
#	254062
#	270177
#	285220
#	304602
#
# Disc length: 4247
#
# Revision: 2
# Processed by: cddbd v1.5.1PL0 Copyright (c) Steve Scherf et al.
# Submitted via: audiograbber 1.83.01
# Normalized: r1:DSETVAR1
#
DISCID=10109513
DTITLE=Various Artist - NuTech
DYEAR=2004
DGENRE=various
TTITLE0=George Strait - All My Ex's Live In Texas
TTITLE1=Kathy Mattea - Eighteen Wheels And A Dozen Roses
TTITLE2=Waylon Jennings and Willie Nelson - Mamas Don't Let Your Babies Grow Up To Be Cowboys
TTITLE3=Alabama - The Closer You Get
TTITLE4=Graham T. Brown - I Wish I Could Hurt That Way Again
TTITLE5=Conway Twitty - Slow Hand
TTITLE6=Don Williams - Stay Young
TTITLE7=Oak Ridge Boys - Elvira
TTITLE8=Alabama - When We Make Love
TTITLE9=Gary Morris - The Wind Beneath My Wings
TTITLE10=The Judds - Let Me Tell You About Love
TTITLE11=Statler Bros. - Flowers On The Wall
TTITLE12=K.T. Oslin - Come Next Monday
TTITLE13=Vince Gill - When I Call Your Name
TTITLE14=Tanya Tucker - I'll Come Back As Another Woman
TTITLE15=Moe Bandy - Till I'm Too Old To Die Young
TTITLE16=Reba McEntire - Cathy's Clown
TTITLE17=Restless Heart - I'll Still Be Loving You
TTITLE18=Hank Williams - There's A Tear In My Beer
EXTD=
EXTT0=
EXTT1=
EXTT2=
EXTT3=
EXTT4=
EXTT5=
EXTT6=
EXTT7=
EXTT8=
EXTT9=
EXTT10=
EXTT11=
EXTT12=
EXTT13=
EXTT14=
EXTT15=
EXTT16=
EXTT17=
EXTT18=
PLAYORDER=
